<svg xmlns="http://www.w3.org/2000/svg" xmlns:xlink="http://www.w3.org/1999/xlink" style="overflow: visible;" data-svgdocument="" id="_HikCfcSOMUBt7ZNyQBdSc" class="fl-svgdocument" x="0" y="0" viewBox="135.58 168.58 240.84 174.85">
   <defs id="_D1Wd5mJDfFQDs6_glT82t" transform="matrix(1.2689423561096191, 0, 0, 1.2689423561096191, -47.64212417602539, 152.74813842773438)" data-uid="o_el3fg5nkh_7" />
   <g data-uid="o_el3fg5nkh_30">
      <g id="_TTORT8N-qHLXGmLeec0Bm" transform="matrix(0.8125000596046448, 0, 0, 0.8125000596046448, 42.21993062424406, 48.0000114440918)" data-uid="o_el3fg5nkh_8">
         <path id="_esA3E-q3e-vAof4VJ6Hms" fill-rule="evenodd" clip-rule="evenodd" d="M71.333,48.557c-5.812,0.056-11.626,0.102-17.418-0.477  c-4.363-0.437-8.622-1.502-12.934-2.242c-3.609-0.619-7.212-1.271-10.87-1.544c-0.638-0.048-1.272-0.061-1.902,0.068  c-1.477,0.303-1.865,1.158-0.982,2.401c1.161,1.635,1.631,3.333,0.896,5.276c-0.531,1.404-1.385,2.588-2.405,3.667  c-2.241,2.366-4.884,4.204-7.723,5.759c-1.673,0.916-3.491,0.684-5.252,0.292c-3.767-0.837-6.963-2.875-10.124-4.964  c-0.764-0.505-0.464-0.925,0.174-1.191c0.754-0.314,1.569-0.198,2.363-0.163c1.192,0.052,2.382,0.2,3.577,0.062  c0.239-0.028,0.537-0.082,0.598-0.323c0.09-0.362-0.261-0.466-0.511-0.54c-1.45-0.427-2.908-0.823-4.36-1.244  c-0.995-0.289-1.982-0.606-2.83-1.232c-0.714-0.527-0.813-1.13-0.209-1.82c0.61-0.699,1.36-1.227,2.133-1.716  c10.953-6.931,22.881-9.939,35.829-9.031c6.586,0.461,12.962,2.023,19.396,3.318c8.635,1.738,17.332,2.987,26.168,2.98  c1.201-0.001,2.184,0.41,2.844,1.439c0.429,0.671,0.518,1.169-0.572,1.163c-1.91-0.013-3.82,0.053-5.732,0.06  C78.101,48.565,74.717,48.557,71.333,48.557z M12.856,50.453c1.444,0.025,2.616-0.996,2.661-2.317  c0.045-1.342-1.049-2.42-2.499-2.463c-1.538-0.045-2.696,0.963-2.711,2.359C10.294,49.373,11.404,50.428,12.856,50.453z" fill="#4c96d7" transform="matrix(3.0126378536224365, 0, 0, 3.0126378536224365, 111.81764221191406, 64.23678588867188)" data-uid="o_el3fg5nkh_9" />
         <path id="_QwgAlBr5h12eizSwV-1e2" fill-rule="evenodd" clip-rule="evenodd" d="M27.197,64.415c-2.796-0.399-5.38-1.132-7.968-2.06  c0.16-0.568,0.679-0.671,1.044-0.908c2.851-1.852,5.604-3.816,7.61-6.629c1.953-2.74,2.519-5.565,0.369-8.492  c-0.54-0.735-0.118-0.873,0.528-0.895c2.686-0.087,5.316,0.392,7.941,0.845c5.099,0.878,10.173,1.916,15.286,2.706  c4.452,0.688,8.97,0.738,13.468,0.751c7.247,0.021,14.495-0.056,21.743-0.134c0.893-0.011,0.974,0.231,0.57,0.911  c-0.617,1.042-1.539,1.648-2.738,1.637c-9.481-0.105-18.206,2.669-26.535,6.945c-6.188,3.176-12.63,5.481-19.641,5.909  c-0.159,0.009-0.317,0.024-0.477,0.04c-2.131,0.207-4.165,0.15-5.983-1.297c-0.923-0.732-2.096-1.142-3.251-1.463  c-0.681-0.189-1.43-0.481-2.056,0.063C26.415,62.948,27.122,63.593,27.197,64.415z M37.497,58.609  c3.66,0.015,7.552-2.54,8.769-5.356c0.637-1.474,0.222-2.635-1.344-3.103c-4.113-1.229-8.304-1.334-12.474-0.347  c-1.821,0.432-1.973,1.352-0.597,2.587c0.717,0.642,0.796,1.215-0.003,1.856c-1.295,1.04-1.272,1.644,0.161,2.578  C33.85,58.028,35.916,58.542,37.497,58.609z" fill="#1761a0" transform="matrix(3.0126378536224365, 0, 0, 3.0126378536224365, 112.70845794677734, 65.79265594482422)" data-uid="o_el3fg5nkh_10" />
         <path id="_sojW2cCp3ZrboeA13zJWm" fill-rule="evenodd" clip-rule="evenodd" d="M86.421,53.251c3.979-3.121,3.959-6.27,0.015-8.375  c0.005-0.074-0.018-0.184,0.021-0.216c2.768-2.277,5.537-4.555,8.604-6.429c0.473-0.289,0.98-0.537,1.499-0.735  c1.345-0.512,1.834-0.263,2.11,1.131c0.469,2.353,0.562,4.744,0.604,7.133c0.073,4.183,0.098,8.365-0.446,12.526  c-0.329,2.525-1.021,2.916-3.276,1.692C92.206,58.164,89.45,55.538,86.421,53.251z" fill="#ffb412" transform="matrix(3.0126378536224365, 0, 0, 3.0126378536224365, 112.1304702758789, 63.2922248840332)" data-uid="o_el3fg5nkh_11" />
         <path id="_LyLSeJfBAXUBMS5di2lb2" fill-rule="evenodd" clip-rule="evenodd" d="M47.937,39.383c1.295-1.914,2.645-3.716,4.331-5.247  c0.473-0.428,1.044-0.593,1.658-0.493c4.537,0.745,8.453,2.667,11.509,6.168c0.438,0.502,0.842,1.061,0.57,1.833  c-0.306,0.871-0.674,1.354-1.8,1.17c-5.295-0.87-10.48-2.255-15.757-3.205C48.299,39.583,48.163,39.485,47.937,39.383z" fill="#ffb412" transform="matrix(3.0126378536224365, 0, 0, 3.0126378536224365, 113.58784484863281, 65.20806121826172)" data-uid="o_el3fg5nkh_12" />
         <path id="_zpY_nctZlC9nxYRjjrilA" fill-rule="evenodd" clip-rule="evenodd" d="M46.548,37.249c-0.029,0.361-0.076,0.638-0.07,0.915  c0.014,0.796-0.23,1.087-1.131,0.946c-3.618-0.57-7.267-0.832-10.932-0.757c-0.879,0.018-1.171-0.124-0.649-1.021  c1.596-2.749,3.065-5.58,5.146-8.012c1.361-1.59,2.034-1.598,3.493-0.088c1.65,1.706,2.821,3.736,3.801,5.879  C46.525,35.811,46.545,36.573,46.548,37.249z" fill="#1761a0" transform="matrix(3.0126378536224365, 0, 0, 3.0126378536224365, 113.37730407714844, 63.70600509643555)" data-uid="o_el3fg5nkh_13" />
         <path id="_5VXkFuaANpl5iqBNXwn5c" fill-rule="evenodd" clip-rule="evenodd" d="M52.677,63.005c4.915-2.094,9.444-4.604,14.284-6.441  c0.561-0.212,0.902-0.072,1.211,0.384c0.603,0.891,0.825,1.83,0.243,2.797c-1.689,2.806-3.932,5.087-6.649,6.906  c-0.527,0.353-1.11,0.414-1.717,0.239C57.376,66.117,55.085,64.638,52.677,63.005z" fill="#4c96d7" transform="matrix(3.0126378536224365, 0, 0, 3.0126378536224365, 111.35862731933594, 64.14617919921875)" data-uid="o_el3fg5nkh_14" />
         <path id="_YFV2F_dgj1-X1WiiLBpWm" fill-rule="evenodd" clip-rule="evenodd" d="M67.405,43.269c1.652-1.89,3.148-3.619,5.14-4.833  c0.865-0.529,1.76-0.45,2.61,0.022c2.397,1.333,4.351,3.178,6.001,5.35c0.295,0.387,0.655,0.917-0.309,0.875  C76.412,44.496,72.011,44.003,67.405,43.269z" fill="#4c96d7" transform="matrix(3.0126378536224365, 0, 0, 3.0126378536224365, 112.17779541015625, 65.3407211303711)" data-uid="o_el3fg5nkh_15" />
         <path id="_CEz5uC0YR_fJdKAOla04x" fill-rule="evenodd" clip-rule="evenodd" d="M28.116,63.42c0.419-0.238,0.729-0.077,1.006,0.028  c3.163,1.21,5.983,2.961,8.376,5.371c0.359,0.361,0.842,0.784,0.659,1.32c-0.207,0.609-0.895,0.555-1.433,0.655  c-1.435,0.271-2.651-0.112-3.722-1.121C31.053,67.838,29.402,65.785,28.116,63.42z" fill="#1761a0" transform="matrix(3.0126378536224365, 0, 0, 3.0126378536224365, 113.04888153076172, 66.16674041748047)" data-uid="o_el3fg5nkh_16" />
         <path id="_OoNHue9ZKmtib8ukyTHA4" fill-rule="evenodd" clip-rule="evenodd" d="M69.677,55.667c3.646-1.187,7.064-1.872,10.564-2.15  c0.266-0.019,0.59-0.155,0.758,0.158c0.181,0.335-0.036,0.628-0.254,0.852c-1.649,1.688-3.593,2.998-5.915,3.359  C72.896,58.188,71.464,56.765,69.677,55.667z" fill="#1761a0" transform="matrix(3.0126378536224365, 0, 0, 3.0126378536224365, 112.86428833007812, 64.13359069824219)" data-uid="o_el3fg5nkh_17" />
         <path id="_jSLA6AIkuPG31pjXMeaC-" fill-rule="evenodd" clip-rule="evenodd" d="M12.897,46.906c0.72,0.07,1.14,0.458,1.146,1.135  c0.007,0.751-0.461,1.169-1.203,1.136c-0.692-0.03-1.082-0.482-1.054-1.167C11.815,47.331,12.239,46.959,12.897,46.906z" fill="#000000" transform="matrix(3.0126378536224365, 0, 0, 3.0126378536224365, 111.49060821533203, 64.92434692382812)" data-uid="o_el3fg5nkh_18" />
         <path id="_0QTcBmpaDdhcKwn3AA1jb" fill-rule="evenodd" clip-rule="evenodd" d="M32.185,51.076c2.202-0.786,4.35-0.781,6.488-0.724  c1.867,0.049,3.742,0.158,5.545,0.724c1.292,0.404,1.565,0.992,0.797,2.115c-3.176,4.646-7.268,5.503-12.214,2.802  c-0.271-0.148-0.824-0.261-0.315-0.844C34.041,53.363,34.007,53.03,32.185,51.076z" fill="#ffb412" transform="matrix(3.0126378536224365, 0, 0, 3.0126378536224365, 112.70346069335938, 65.33518981933594)" data-uid="o_el3fg5nkh_19" />
      </g>
      <path id="_NoX6CLE6FCvJxBrNL_KWY" fill="#1761a0" transform="matrix(0.5969292521476746, 0, 0, 0.5969292521476746, 255.6716766357422, 326.1132507324219)" text="gifish" text-anchor="middle" font-size="100" letter-spacing="0" side="left" offset="0.5" dx="0" dy="0" space="preserve" href="" font-family="Esteban" font-scale="contain" x="0" y="0" data-fl-textpath="" data-uid="o_el3fg5nkh_20" d="M-79.25-49L-79.25-49Q-76.95-49 -75.4-47.5Q-73.85000000000001-46 -73.85000000000001-43.9Q-73.85000000000001-41.8 -75.05000000000001-40.5Q-76.25-39.2 -78.15-39.2L-78.15-39.2Q-82.05000000000001-39.2 -82.05000000000001-42.1L-82.05000000000001-42.1Q-82.05000000000001-42.9 -81.65-43.55Q-81.25-44.2 -81.25-44.5Q-81.25-44.8 -81.85000000000001-44.8L-81.85000000000001-44.8Q-83.35000000000001-44.8 -85.95-42L-85.95-42Q-82.15-36.9 -82.15-29.65Q-82.15-22.4 -87.15-16.9Q-92.15-11.4 -100.35000000000001-11.4L-100.35000000000001-11.4Q-103.35000000000001-11.4 -105.55000000000001-12.1L-105.55000000000001-12.1Q-109.25-10.7 -109.25-8.9L-109.25-8.9Q-109.25-6.6 -105.45-5.6L-105.45-5.6Q-102.05000000000001-4.6 -98.25-4.1L-98.25-4.1Q-84.65-2.3 -79.85000000000001 1.1Q-75.05000000000001 4.5 -75.05000000000001 11.95Q-75.05000000000001 19.4 -81.75 24.2Q-88.45 29 -97.55000000000001 29Q-106.65 29 -113.35000000000001 25.05Q-120.05000000000001 21.1 -120.05000000000001 12.7L-120.05000000000001 12.7Q-120.05000000000001 8.5 -117.7 5.7Q-115.35000000000001 2.9 -110.45 0.2L-110.45 0.2Q-115.85000000000001-2.7 -115.85000000000001-7.6L-115.85000000000001-7.6Q-115.85000000000001-11.5 -109.95-14L-109.95-14Q-113.85000000000001-16.5 -115.95-20.8Q-118.05000000000001-25.1 -118.05000000000001-30.2L-118.05000000000001-30.2Q-118.05000000000001-38.1 -113.25-43.55Q-108.45-49 -100.85000000000001-49Q-93.25-49 -88.45-44.7L-88.45-44.7Q-84.15-49 -79.25-49ZM-82.85000000000001 13.8L-82.85000000000001 13.8Q-82.85000000000001 7.9 -87.95 6.2L-87.95 6.2Q-90.75 5.2 -96.9 4.2Q-103.05000000000001 3.2 -105.65 2.3L-105.65 2.3Q-111.25 4.5 -111.25 12.4L-111.25 12.4Q-111.25 17.7 -107.60000000000001 20.75Q-103.95 23.8 -98.2 23.8Q-92.45 23.8 -87.65 21.15Q-82.85000000000001 18.5 -82.85000000000001 13.8ZM-110.15-31.2Q-110.15-25.6 -107.2-21.2Q-104.25-16.8 -99.4-16.8Q-94.55000000000001-16.8 -92.30000000000001-20.3Q-90.05000000000001-23.8 -90.05000000000001-29.4Q-90.05000000000001-35 -93-39.6Q-95.95-44.2 -100.80000000000001-44.2Q-105.65-44.2 -107.9-40.5Q-110.15-36.8 -110.15-31.2ZM-52.25000000000001-61.25Q-52.25000000000001-58.7 -53.85000000000001-57.25Q-55.45-55.8 -58.00000000000001-55.8Q-60.550000000000004-55.8 -62.050000000000004-57.4Q-63.550000000000004-59 -63.550000000000004-61.45Q-63.550000000000004-63.9 -62.050000000000004-65.55Q-60.550000000000004-67.2 -58.150000000000006-67.2Q-55.75000000000001-67.2 -54.00000000000001-65.5Q-52.25000000000001-63.8 -52.25000000000001-61.25ZM-44.75000000000001 0L-56.75000000000001-0.6L-69.45 0Q-69.75-0.3 -69.75-1.65Q-69.75-3 -69.15-3.6L-69.15-3.6Q-65.15-3.6 -63.300000000000004-4.75Q-61.45-5.9 -61.45-8.7L-61.45-8.7L-61.35000000000001-35.8Q-61.35000000000001-40.9 -69.65-40.9L-69.65-40.9Q-69.95-41.2 -69.95-42.55Q-69.95-43.9 -69.35000000000001-44.5L-69.35000000000001-44.5Q-66.25-44.5 -63.45-45.25Q-60.650000000000006-46 -59.7-46.55Q-58.75000000000001-47.1 -58.10000000000001-47.75Q-57.45-48.4 -56.150000000000006-48.4Q-54.85000000000001-48.4 -54.25000000000001-48L-54.25000000000001-48L-52.650000000000006-8.7Q-52.550000000000004-5.9 -50.800000000000004-4.75Q-49.050000000000004-3.6 -45.050000000000004-3.6L-45.050000000000004-3.6Q-44.550000000000004-3.1 -44.550000000000004-1.65Q-44.550000000000004-0.2 -44.75000000000001 0L-44.75000000000001 0ZM-14.650000000000006 0L-26.650000000000006-0.6L-39.35 0Q-39.650000000000006-0.3 -39.650000000000006-1.65Q-39.650000000000006-3 -39.050000000000004-3.6L-39.050000000000004-3.6Q-35.050000000000004-3.6 -33.25-4.75Q-31.450000000000003-5.9 -31.350000000000005-8.7L-31.350000000000005-8.7L-30.950000000000003-39.8L-38.75000000000001-39.8Q-39.650000000000006-41.4 -39.650000000000006-42.85Q-39.650000000000006-44.3 -39.050000000000004-45L-39.050000000000004-45L-30.950000000000003-45L-30.750000000000004-55.6Q-30.550000000000004-64.7 -26.600000000000005-70.85Q-22.650000000000006-77 -14.850000000000005-77L-14.850000000000005-77Q-10.550000000000004-77 -7.500000000000007-75.15Q-4.450000000000003-73.3 -4.450000000000003-70.55Q-4.450000000000003-67.8 -5.850000000000001-66.4Q-7.250000000000007-65 -9.550000000000004-65L-9.550000000000004-65Q-14.150000000000006-65 -14.150000000000006-68.4L-14.150000000000006-68.4Q-14.150000000000006-69.4 -13.750000000000004-70.1Q-13.350000000000005-70.8 -13.350000000000005-71.1L-13.350000000000005-71.1Q-13.350000000000005-72.3 -16.050000000000004-72.3Q-18.750000000000004-72.3 -21.300000000000004-68.95Q-23.850000000000005-65.6 -23.850000000000005-58.7L-23.850000000000005-58.7Q-23.850000000000005-58.4 -23.550000000000004-45L-23.550000000000004-45L-12.150000000000006-45Q-11.650000000000006-43.6 -11.650000000000006-42.1Q-11.650000000000006-40.6 -12.450000000000003-39.8L-12.450000000000003-39.8L-23.350000000000005-39.8L-22.550000000000004-8.7Q-22.450000000000003-5.9 -20.700000000000003-4.75Q-18.950000000000003-3.6 -14.950000000000003-3.6L-14.950000000000003-3.6Q-14.450000000000003-3.1 -14.450000000000003-1.65Q-14.450000000000003-0.2 -14.650000000000006 0L-14.650000000000006 0ZM 11.749999999999993-61.25Q 11.749999999999993-58.7  10.149999999999995-57.25Q 8.549999999999994-55.8  5.999999999999995-55.8Q 3.449999999999994-55.8  1.949999999999994-57.4Q 0.44999999999999396-59  0.44999999999999396-61.45Q 0.44999999999999396-63.9  1.949999999999994-65.55Q 3.449999999999994-67.2  5.849999999999994-67.2Q 8.249999999999993-67.2  9.999999999999993-65.5Q 11.749999999999993-63.8  11.749999999999993-61.25ZM 19.249999999999993 0L 7.249999999999993-0.6L-5.4500000000000055 0Q-5.750000000000005-0.3 -5.750000000000005-1.65Q-5.750000000000005-3 -5.150000000000006-3.6L-5.150000000000006-3.6Q-1.1500000000000057-3.6  0.699999999999994-4.75Q 2.5499999999999936-5.9  2.5499999999999936-8.7L 2.5499999999999936-8.7L 2.649999999999995-35.8Q 2.649999999999995-40.9 -5.650000000000006-40.9L-5.650000000000006-40.9Q-5.9500000000000055-41.2 -5.9500000000000055-42.55Q-5.9500000000000055-43.9 -5.350000000000006-44.5L-5.350000000000006-44.5Q-2.2500000000000053-44.5  0.5499999999999936-45.25Q 3.3499999999999943-46  4.299999999999994-46.55Q 5.249999999999995-47.1  5.899999999999995-47.75Q 6.549999999999994-48.4  7.849999999999994-48.4Q 9.149999999999995-48.4  9.749999999999993-48L 9.749999999999993-48L 11.349999999999994-8.7Q 11.449999999999996-5.9  13.199999999999996-4.75Q 14.949999999999996-3.6  18.949999999999996-3.6L 18.949999999999996-3.6Q 19.449999999999996-3.1  19.449999999999996-1.65Q 19.449999999999996-0.2  19.249999999999993 0L 19.249999999999993 0ZM 44.55-49L 44.55-49Q 49.949999999999996-49  53.849999999999994-46.45Q 57.74999999999999-43.9  57.74999999999999-40.1L 57.74999999999999-40.1Q 57.74999999999999-37.8  56.4-36.4Q 55.05-35  52.99999999999999-35Q 50.949999999999996-35  49.599999999999994-35.9Q 48.25-36.8  48.25-38.25Q 48.25-39.7  48.64999999999999-40.6Q 49.05-41.5  49.05-42.1L 49.05-42.1Q 49.05-44.3  44.449999999999996-44.3Q 39.849999999999994-44.3  37.199999999999996-42.3Q 34.55-40.3  34.55-37.5Q 34.55-34.7  37.14999999999999-32.4Q 39.75-30.1  43.449999999999996-28.2Q 47.14999999999999-26.3  50.849999999999994-24.25Q 54.55-22.2  57.15-19.1Q 59.74999999999999-16  59.74999999999999-12.2L 59.74999999999999-12.2Q 59.74999999999999-5.8  54.4-2.4Q 49.05 1  41.949999999999996 1Q 34.849999999999994 1  29.999999999999996-2.3Q 25.149999999999995-5.6  25.149999999999995-12L 25.149999999999995-12Q 25.149999999999995-14.2  26.449999999999996-15.55Q 27.749999999999996-16.9  30.049999999999997-16.9L 30.049999999999997-16.9Q 34.949999999999996-16.9  34.949999999999996-13.5L 34.949999999999996-13.5Q 34.949999999999996-11.9  33.75-10.5Q 32.55-9.1  32.55-8.6L 32.55-8.6Q 32.55-6.8  35.39999999999999-5.5Q 38.25-4.2  41.64999999999999-4.2Q 45.05-4.2  48.449999999999996-5.95Q 51.849999999999994-7.7  51.849999999999994-11.5L 51.849999999999994-11.5Q 51.849999999999994-15.4  43.05-19.4L 43.05-19.4Q 39.349999999999994-21  35.64999999999999-22.85Q 31.949999999999996-24.7  29.399999999999995-27.85Q 26.849999999999994-31  26.849999999999994-35L 26.849999999999994-35Q 26.849999999999994-41.6  31.699999999999996-45.3Q 36.55-49  44.55-49ZM 80.45-76L 81.25-40.3Q 89.95-49  98.15-49L 98.15-49Q 104.95-49  109.10000000000001-44.7Q 113.25-40.4  113.45-33.4L 113.45-33.4L 114.15-8.7Q 114.25-5.9  115.95-4.75Q 117.65-3.6  121.65-3.6L 121.65-3.6Q 122.15-3.1  122.15-1.65Q 122.15-0.2  121.95 0L 121.95 0L 110.05000000000001-0.6L 97.85000000000001 0Q 97.55000000000001-0.3  97.55000000000001-1.65Q 97.55000000000001-3  98.15-3.6L 98.15-3.6Q 101.95-3.6  103.60000000000001-4.75Q 105.25-5.9  105.35000000000001-8.7L 105.35000000000001-8.7L 105.75-31.6Q 105.85000000000001-36.6  103.05000000000001-39.7Q 100.25-42.8  95.25-42.8L 95.25-42.8Q 90.25-42.8  84.05000000000001-37.1L 84.05000000000001-37.1Q 82.15-35.3  81.85000000000001-35.1L 81.85000000000001-35.1L 82.65-8.7Q 82.75-5.9  84.35000000000001-4.75Q 85.95-3.6  89.75-3.6L 89.75-3.6Q 90.25-3.1  90.25-1.65Q 90.25-0.2  90.05000000000001 0L 90.05000000000001 0L 78.55000000000001-0.6L 65.85000000000001 0Q 65.55000000000001-0.3  65.55000000000001-1.65Q 65.55000000000001-3  66.15-3.6L 66.15-3.6Q 70.15-3.6  72-4.75Q 73.85000000000001-5.9  73.85000000000001-8.7L 73.85000000000001-8.7L 74.15-63.7Q 74.15-68.8  65.85000000000001-68.8L 65.85000000000001-68.8Q 65.55000000000001-69.1  65.55000000000001-70.45Q 65.55000000000001-71.8  66.15-72.4L 66.15-72.4Q 69.95-72.7  72.4-73.35Q 74.85000000000001-74  76.85000000000001-76L 76.85000000000001-76Q 77.25-76.4  78.55000000000001-76.4Q 79.85000000000001-76.4  80.45-76L 80.45-76Z" />
   </g>
</svg>