
<svg xmlns="http://www.w3.org/2000/svg" xmlns:xlink="http://www.w3.org/1999/xlink" style="overflow: visible;" data-svgdocument="" id="_HikCfcSOMUBt7ZNyQBdSc" class="fl-svgdocument" x="0" y="0" viewBox="135.58 149.32 240.84 106.68">
   <defs id="_D1Wd5mJDfFQDs6_glT82t" transform="matrix(1.2689423561096191, 0, 0, 1.2689423561096191, -47.64212417602539, 152.74813842773438)" data-uid="o_el3fg5nkh_7" />
   <g id="_TTORT8N-qHLXGmLeec0Bm" transform="matrix(0.8125000596046448, 0, 0, 0.8125000596046448, 42.21993062424406, 28.74543447033227)" data-uid="o_el3fg5nkh_8">
      <path id="_esA3E-q3e-vAof4VJ6Hms" fill-rule="evenodd" clip-rule="evenodd" d="M71.333,48.557c-5.812,0.056-11.626,0.102-17.418-0.477  c-4.363-0.437-8.622-1.502-12.934-2.242c-3.609-0.619-7.212-1.271-10.87-1.544c-0.638-0.048-1.272-0.061-1.902,0.068  c-1.477,0.303-1.865,1.158-0.982,2.401c1.161,1.635,1.631,3.333,0.896,5.276c-0.531,1.404-1.385,2.588-2.405,3.667  c-2.241,2.366-4.884,4.204-7.723,5.759c-1.673,0.916-3.491,0.684-5.252,0.292c-3.767-0.837-6.963-2.875-10.124-4.964  c-0.764-0.505-0.464-0.925,0.174-1.191c0.754-0.314,1.569-0.198,2.363-0.163c1.192,0.052,2.382,0.2,3.577,0.062  c0.239-0.028,0.537-0.082,0.598-0.323c0.09-0.362-0.261-0.466-0.511-0.54c-1.45-0.427-2.908-0.823-4.36-1.244  c-0.995-0.289-1.982-0.606-2.83-1.232c-0.714-0.527-0.813-1.13-0.209-1.82c0.61-0.699,1.36-1.227,2.133-1.716  c10.953-6.931,22.881-9.939,35.829-9.031c6.586,0.461,12.962,2.023,19.396,3.318c8.635,1.738,17.332,2.987,26.168,2.98  c1.201-0.001,2.184,0.41,2.844,1.439c0.429,0.671,0.518,1.169-0.572,1.163c-1.91-0.013-3.82,0.053-5.732,0.06  C78.101,48.565,74.717,48.557,71.333,48.557z M12.856,50.453c1.444,0.025,2.616-0.996,2.661-2.317  c0.045-1.342-1.049-2.42-2.499-2.463c-1.538-0.045-2.696,0.963-2.711,2.359C10.294,49.373,11.404,50.428,12.856,50.453z" fill="#4c96d7" transform="matrix(3.0126378536224365, 0, 0, 3.0126378536224365, 111.81764221191406, 64.23678588867188)" data-uid="o_el3fg5nkh_9" />
      <path id="_QwgAlBr5h12eizSwV-1e2" fill-rule="evenodd" clip-rule="evenodd" d="M27.197,64.415c-2.796-0.399-5.38-1.132-7.968-2.06  c0.16-0.568,0.679-0.671,1.044-0.908c2.851-1.852,5.604-3.816,7.61-6.629c1.953-2.74,2.519-5.565,0.369-8.492  c-0.54-0.735-0.118-0.873,0.528-0.895c2.686-0.087,5.316,0.392,7.941,0.845c5.099,0.878,10.173,1.916,15.286,2.706  c4.452,0.688,8.97,0.738,13.468,0.751c7.247,0.021,14.495-0.056,21.743-0.134c0.893-0.011,0.974,0.231,0.57,0.911  c-0.617,1.042-1.539,1.648-2.738,1.637c-9.481-0.105-18.206,2.669-26.535,6.945c-6.188,3.176-12.63,5.481-19.641,5.909  c-0.159,0.009-0.317,0.024-0.477,0.04c-2.131,0.207-4.165,0.15-5.983-1.297c-0.923-0.732-2.096-1.142-3.251-1.463  c-0.681-0.189-1.43-0.481-2.056,0.063C26.415,62.948,27.122,63.593,27.197,64.415z M37.497,58.609  c3.66,0.015,7.552-2.54,8.769-5.356c0.637-1.474,0.222-2.635-1.344-3.103c-4.113-1.229-8.304-1.334-12.474-0.347  c-1.821,0.432-1.973,1.352-0.597,2.587c0.717,0.642,0.796,1.215-0.003,1.856c-1.295,1.04-1.272,1.644,0.161,2.578  C33.85,58.028,35.916,58.542,37.497,58.609z" fill="#1761a0" transform="matrix(3.0126378536224365, 0, 0, 3.0126378536224365, 112.70845794677734, 65.79265594482422)" data-uid="o_el3fg5nkh_10" />
      <path id="_sojW2cCp3ZrboeA13zJWm" fill-rule="evenodd" clip-rule="evenodd" d="M86.421,53.251c3.979-3.121,3.959-6.27,0.015-8.375  c0.005-0.074-0.018-0.184,0.021-0.216c2.768-2.277,5.537-4.555,8.604-6.429c0.473-0.289,0.98-0.537,1.499-0.735  c1.345-0.512,1.834-0.263,2.11,1.131c0.469,2.353,0.562,4.744,0.604,7.133c0.073,4.183,0.098,8.365-0.446,12.526  c-0.329,2.525-1.021,2.916-3.276,1.692C92.206,58.164,89.45,55.538,86.421,53.251z" fill="#ffb412" transform="matrix(3.0126378536224365, 0, 0, 3.0126378536224365, 112.1304702758789, 63.2922248840332)" data-uid="o_el3fg5nkh_11" />
      <path id="_LyLSeJfBAXUBMS5di2lb2" fill-rule="evenodd" clip-rule="evenodd" d="M47.937,39.383c1.295-1.914,2.645-3.716,4.331-5.247  c0.473-0.428,1.044-0.593,1.658-0.493c4.537,0.745,8.453,2.667,11.509,6.168c0.438,0.502,0.842,1.061,0.57,1.833  c-0.306,0.871-0.674,1.354-1.8,1.17c-5.295-0.87-10.48-2.255-15.757-3.205C48.299,39.583,48.163,39.485,47.937,39.383z" fill="#ffb412" transform="matrix(3.0126378536224365, 0, 0, 3.0126378536224365, 113.58784484863281, 65.20806121826172)" data-uid="o_el3fg5nkh_12" />
      <path id="_zpY_nctZlC9nxYRjjrilA" fill-rule="evenodd" clip-rule="evenodd" d="M46.548,37.249c-0.029,0.361-0.076,0.638-0.07,0.915  c0.014,0.796-0.23,1.087-1.131,0.946c-3.618-0.57-7.267-0.832-10.932-0.757c-0.879,0.018-1.171-0.124-0.649-1.021  c1.596-2.749,3.065-5.58,5.146-8.012c1.361-1.59,2.034-1.598,3.493-0.088c1.65,1.706,2.821,3.736,3.801,5.879  C46.525,35.811,46.545,36.573,46.548,37.249z" fill="#1761a0" transform="matrix(3.0126378536224365, 0, 0, 3.0126378536224365, 113.37730407714844, 63.70600509643555)" data-uid="o_el3fg5nkh_13" />
      <path id="_5VXkFuaANpl5iqBNXwn5c" fill-rule="evenodd" clip-rule="evenodd" d="M52.677,63.005c4.915-2.094,9.444-4.604,14.284-6.441  c0.561-0.212,0.902-0.072,1.211,0.384c0.603,0.891,0.825,1.83,0.243,2.797c-1.689,2.806-3.932,5.087-6.649,6.906  c-0.527,0.353-1.11,0.414-1.717,0.239C57.376,66.117,55.085,64.638,52.677,63.005z" fill="#4c96d7" transform="matrix(3.0126378536224365, 0, 0, 3.0126378536224365, 111.35862731933594, 64.14617919921875)" data-uid="o_el3fg5nkh_14" />
      <path id="_YFV2F_dgj1-X1WiiLBpWm" fill-rule="evenodd" clip-rule="evenodd" d="M67.405,43.269c1.652-1.89,3.148-3.619,5.14-4.833  c0.865-0.529,1.76-0.45,2.61,0.022c2.397,1.333,4.351,3.178,6.001,5.35c0.295,0.387,0.655,0.917-0.309,0.875  C76.412,44.496,72.011,44.003,67.405,43.269z" fill="#4c96d7" transform="matrix(3.0126378536224365, 0, 0, 3.0126378536224365, 112.17779541015625, 65.3407211303711)" data-uid="o_el3fg5nkh_15" />
      <path id="_CEz5uC0YR_fJdKAOla04x" fill-rule="evenodd" clip-rule="evenodd" d="M28.116,63.42c0.419-0.238,0.729-0.077,1.006,0.028  c3.163,1.21,5.983,2.961,8.376,5.371c0.359,0.361,0.842,0.784,0.659,1.32c-0.207,0.609-0.895,0.555-1.433,0.655  c-1.435,0.271-2.651-0.112-3.722-1.121C31.053,67.838,29.402,65.785,28.116,63.42z" fill="#1761a0" transform="matrix(3.0126378536224365, 0, 0, 3.0126378536224365, 113.04888153076172, 66.16674041748047)" data-uid="o_el3fg5nkh_16" />
      <path id="_OoNHue9ZKmtib8ukyTHA4" fill-rule="evenodd" clip-rule="evenodd" d="M69.677,55.667c3.646-1.187,7.064-1.872,10.564-2.15  c0.266-0.019,0.59-0.155,0.758,0.158c0.181,0.335-0.036,0.628-0.254,0.852c-1.649,1.688-3.593,2.998-5.915,3.359  C72.896,58.188,71.464,56.765,69.677,55.667z" fill="#1761a0" transform="matrix(3.0126378536224365, 0, 0, 3.0126378536224365, 112.86428833007812, 64.13359069824219)" data-uid="o_el3fg5nkh_17" />
      <path id="_jSLA6AIkuPG31pjXMeaC-" fill-rule="evenodd" clip-rule="evenodd" d="M12.897,46.906c0.72,0.07,1.14,0.458,1.146,1.135  c0.007,0.751-0.461,1.169-1.203,1.136c-0.692-0.03-1.082-0.482-1.054-1.167C11.815,47.331,12.239,46.959,12.897,46.906z" fill="#000000" transform="matrix(3.0126378536224365, 0, 0, 3.0126378536224365, 111.49060821533203, 64.92434692382812)" data-uid="o_el3fg5nkh_18" />
      <path id="_0QTcBmpaDdhcKwn3AA1jb" fill-rule="evenodd" clip-rule="evenodd" d="M32.185,51.076c2.202-0.786,4.35-0.781,6.488-0.724  c1.867,0.049,3.742,0.158,5.545,0.724c1.292,0.404,1.565,0.992,0.797,2.115c-3.176,4.646-7.268,5.503-12.214,2.802  c-0.271-0.148-0.824-0.261-0.315-0.844C34.041,53.363,34.007,53.03,32.185,51.076z" fill="#ffb412" transform="matrix(3.0126378536224365, 0, 0, 3.0126378536224365, 112.70346069335938, 65.33518981933594)" data-uid="o_el3fg5nkh_19" />
   </g>
</svg>

