<svg xmlns="http://www.w3.org/2000/svg" version="1.0" width="1928.000000pt" height="1928.000000pt" viewBox="0 0 1928.000000 1928.000000" preserveAspectRatio="xMidYMid meet">
   <metadata>Created by potrace 1.14, written by Peter Selinger 2001-2017</metadata>
   <g transform="translate(0.000000,1928.000000) scale(0.100000,-0.100000)" fill="#000000" stroke="none">
      <path d="M7787 13895 c-88 -33 -192 -132 -362 -345 -93 -115 -196 -258 -272 -375 -18 -27 -36 -55 -40 -61 -10 -13 -15 -21 -120 -194 -48 -80 -91 -146 -95 -148 -5 -2 -8 -8 -8 -12 0 -5 -14 -33 -31 -62 -51 -86 -71 -121 -87 -153 -9 -16 -18 -32 -22 -35 -4 -3 -24 -39 -46 -80 -21 -41 -42 -77 -45 -80 -3 -3 -23 -36 -44 -75 -21 -38 -42 -72 -47 -73 -4 -2 -6 -7 -3 -12 3 -5 -1 -14 -8 -22 -16 -16 -86 -157 -88 -178 -4 -35 3 -51 27 -67 23 -15 65 -17 378 -19 311 -2 532 -8 706 -19 30 -2 98 -6 150 -9 52 -3 118 -8 145 -11 46 -5 83 -8 215 -20 43 -4 62 -6 190 -21 30 -3 72 -7 92 -10 20 -2 49 -6 65 -8 15 -3 48 -8 73 -11 25 -3 61 -8 80 -11 19 -3 49 -7 65 -9 17 -2 30 -4 30 -5 0 -5 90 -12 155 -13 97 -1 119 3 126 25 3 10 9 18 14 18 9 0 21 40 26 90 10 96 12 393 4 450 -11 68 -36 161 -54 195 -6 11 -11 22 -11 25 -1 9 -144 292 -178 355 -87 158 -223 374 -281 446 -12 14 -28 36 -36 49 -16 23 -25 34 -80 101 -144 174 -339 359 -377 359 -7 0 -13 5 -13 12 0 6 -3 8 -7 5 -3 -4 -12 -2 -19 4 -22 18 -125 20 -167 4z" />
      <path d="M10352 12728 c-99 -15 -165 -60 -327 -224 -190 -192 -267 -283 -467 -549 -49 -66 -95 -127 -101 -135 -7 -8 -23 -32 -36 -53 -12 -21 -28 -43 -35 -50 -27 -28 -76 -111 -69 -117 20 -17 114 -50 154 -54 24 -3 53 -7 64 -9 39 -9 250 -49 272 -52 11 -2 31 -6 42 -10 12 -3 36 -9 54 -12 33 -5 39 -6 122 -23 28 -6 59 -12 70 -14 11 -3 74 -16 140 -30 66 -15 129 -28 140 -31 122 -25 220 -47 225 -50 3 -2 24 -6 46 -9 23 -4 56 -11 74 -16 19 -5 36 -8 38 -5 3 2 12 0 21 -4 9 -5 30 -11 46 -14 17 -3 60 -12 96 -21 68 -15 97 -22 147 -31 15 -3 33 -8 41 -11 8 -2 30 -7 50 -10 20 -3 53 -10 74 -15 21 -6 50 -12 65 -14 15 -3 64 -13 110 -24 45 -10 85 -19 87 -20 3 -1 6 -1 8 -2 1 0 13 -2 27 -5 14 -2 59 -11 100 -20 41 -9 86 -18 100 -20 14 -2 45 -9 70 -14 68 -15 102 -22 130 -26 14 -2 48 -8 75 -14 28 -6 64 -13 80 -16 41 -6 86 -14 110 -19 11 -2 36 -6 55 -10 19 -3 46 -8 60 -11 14 -3 36 -8 50 -10 14 -2 52 -9 85 -14 168 -30 252 -12 322 66 24 26 41 50 38 52 -3 3 0 10 5 17 23 27 56 142 55 187 -2 44 -28 129 -47 153 -4 5 -26 34 -49 64 -84 109 -272 298 -419 421 -36 30 -67 57 -70 60 -20 21 -170 130 -178 130 -6 0 -12 4 -14 8 -3 8 -105 78 -133 92 -5 3 -29 17 -52 33 -24 15 -47 27 -53 27 -5 0 -10 3 -10 8 0 4 -20 16 -45 27 -25 11 -45 24 -45 29 0 5 -3 7 -6 4 -3 -3 -36 11 -73 32 -123 67 -474 211 -546 224 -11 2 -33 9 -48 15 -41 16 -263 75 -327 87 -14 3 -32 7 -40 9 -8 2 -31 7 -50 10 -19 3 -51 10 -70 14 -19 5 -42 9 -50 9 -8 0 -28 3 -45 7 -48 10 -87 11 -143 3z" />
      <path d="M18875 12138 c-22 -4 -44 -10 -50 -11 -5 -2 -23 -7 -40 -12 -16 -4 -34 -11 -40 -15 -5 -3 -31 -14 -57 -24 -26 -9 -82 -35 -125 -57 -81 -42 -329 -194 -351 -215 -6 -7 -21 -16 -32 -19 -11 -3 -20 -10 -20 -15 0 -5 -9 -12 -20 -15 -11 -3 -26 -12 -33 -18 -7 -7 -48 -36 -92 -66 -109 -74 -376 -271 -398 -293 -10 -10 -21 -18 -26 -18 -4 0 -16 -8 -27 -18 -10 -10 -46 -38 -79 -62 -32 -25 -67 -52 -76 -60 -10 -8 -24 -20 -31 -25 -7 -6 -51 -41 -98 -78 -47 -38 -92 -74 -100 -80 -8 -7 -78 -64 -155 -127 -77 -63 -144 -118 -150 -122 -5 -5 -21 -18 -35 -29 -14 -12 -39 -32 -57 -46 -43 -33 -35 -59 27 -91 52 -27 157 -98 223 -152 46 -37 120 -115 185 -195 30 -36 98 -194 105 -240 1 -11 5 -24 8 -30 7 -13 3 -181 -5 -222 -3 -18 -10 -43 -16 -57 -5 -15 -7 -26 -5 -26 3 0 -3 -17 -14 -39 -11 -21 -18 -41 -15 -43 2 -3 -2 -11 -11 -18 -8 -7 -15 -18 -15 -26 0 -11 -23 -53 -72 -128 -65 -100 -212 -257 -340 -365 -42 -35 -74 -69 -72 -75 3 -7 17 -20 32 -29 15 -9 42 -30 61 -47 18 -16 37 -30 40 -30 3 0 17 -10 31 -23 31 -27 75 -64 120 -97 18 -14 42 -33 54 -43 11 -10 42 -35 68 -55 27 -20 48 -40 48 -44 0 -4 5 -8 11 -8 6 0 16 -6 23 -13 17 -16 69 -59 171 -139 44 -34 82 -65 85 -68 3 -3 39 -32 80 -65 41 -32 77 -63 78 -67 2 -4 8 -8 13 -8 5 0 42 -26 82 -58 138 -111 497 -362 518 -362 5 0 9 -4 9 -10 0 -5 5 -10 12 -10 7 0 28 -11 47 -24 48 -32 184 -110 193 -111 3 0 10 -3 14 -8 11 -11 130 -66 204 -94 91 -35 200 -37 253 -4 72 45 128 162 153 321 3 19 7 42 9 50 4 16 15 93 20 145 2 17 6 53 9 80 9 76 17 154 22 215 2 30 6 73 9 95 2 22 7 83 11 135 24 358 29 561 29 1195 -1 771 -13 1230 -39 1458 -3 23 -8 71 -11 106 -3 36 -8 79 -10 95 -2 17 -7 54 -10 81 -10 81 -15 118 -21 145 -3 13 -7 40 -10 60 -2 19 -6 42 -9 50 -2 8 -7 33 -10 55 -13 84 -57 190 -95 226 -41 40 -108 53 -185 37z" />
      <path d="M14288 11855 c-1 -2 -23 -4 -48 -6 -57 -3 -135 -29 -197 -65 -26 -16 -50 -31 -53 -34 -3 -3 -30 -21 -60 -40 -30 -19 -57 -37 -60 -40 -3 -3 -48 -40 -100 -82 -198 -160 -346 -307 -615 -613 -33 -38 -74 -84 -92 -104 l-32 -36 37 -7 c20 -3 60 -9 87 -13 28 -4 54 -10 59 -15 5 -5 15 -6 22 -3 8 3 42 0 76 -6 35 -6 83 -13 108 -16 72 -8 162 -21 210 -30 28 -6 97 -15 150 -21 19 -2 49 -5 65 -7 17 -3 55 -7 86 -11 31 -4 65 -8 75 -10 11 -2 51 -7 89 -11 39 -3 84 -8 100 -10 97 -13 192 -23 270 -31 28 -2 68 -6 90 -9 22 -2 69 -6 105 -9 36 -3 88 -8 115 -11 28 -3 79 -7 115 -10 36 -2 92 -7 125 -10 33 -3 96 -7 140 -10 44 -2 80 -4 80 -5 0 -1 38 -3 85 -6 47 -2 126 -7 175 -10 218 -13 285 -4 291 41 2 17 -30 91 -47 105 -3 3 -25 32 -50 65 -24 32 -51 67 -59 75 -8 9 -33 38 -55 65 -69 85 -117 136 -240 260 -104 104 -146 143 -261 242 -12 10 -36 29 -54 43 -18 14 -38 30 -44 35 -24 22 -90 68 -198 140 -62 41 -117 78 -123 82 -5 5 -23 15 -40 23 -16 8 -41 22 -55 31 -40 26 -156 69 -202 75 -24 3 -48 7 -55 9 -6 2 -13 2 -15 0z" />
      <path d="M6337 11654 c-1 -1 -76 -5 -167 -8 -91 -4 -208 -10 -260 -13 -52 -3 -116 -6 -142 -7 -27 0 -48 -3 -48 -6 0 -3 -21 -5 -48 -6 -51 -1 -169 -11 -317 -28 -33 -4 -78 -9 -100 -12 -40 -4 -74 -9 -150 -18 -22 -3 -58 -8 -80 -11 -22 -3 -53 -7 -70 -11 -16 -3 -43 -7 -60 -9 -16 -2 -41 -6 -55 -9 -14 -2 -45 -7 -70 -10 -25 -4 -63 -11 -85 -16 -22 -5 -41 -9 -42 -10 -2 0 -4 0 -5 -1 -2 0 -21 -2 -43 -4 -22 -2 -71 -11 -108 -19 -38 -9 -73 -14 -78 -10 -5 3 -9 0 -9 -5 0 -6 -3 -10 -7 -9 -16 3 -123 -15 -123 -21 0 -4 -8 -7 -17 -8 -56 -5 -90 -10 -99 -15 -5 -3 -36 -12 -69 -19 -33 -7 -62 -13 -65 -14 -5 -2 -81 -18 -90 -20 -3 -1 -14 -4 -25 -8 -11 -3 -31 -8 -45 -11 -14 -3 -83 -21 -155 -41 -71 -19 -141 -37 -154 -41 -14 -3 -28 -7 -33 -10 -4 -3 -16 -7 -27 -9 -26 -5 -152 -42 -241 -72 -41 -13 -82 -26 -91 -28 -8 -2 -32 -10 -54 -19 -21 -9 -40 -14 -43 -11 -2 2 -14 -1 -26 -7 -11 -7 -25 -13 -31 -14 -52 -12 -532 -194 -710 -269 -60 -26 -120 -49 -133 -52 -12 -3 -22 -9 -22 -14 0 -5 -7 -9 -15 -9 -9 0 -30 -8 -48 -17 -18 -9 -35 -16 -40 -15 -4 1 -7 -3 -7 -8 0 -5 -3 -9 -7 -8 -5 1 -30 -8 -58 -20 -27 -12 -53 -21 -56 -20 -3 2 -13 -5 -23 -14 -10 -10 -26 -18 -37 -18 -10 0 -19 -4 -19 -10 0 -5 -9 -10 -20 -10 -11 0 -20 -4 -20 -10 0 -5 -6 -10 -12 -10 -20 0 -595 -292 -608 -308 -3 -4 -10 -8 -17 -9 -7 -2 -34 -16 -61 -33 -27 -16 -54 -30 -61 -30 -6 0 -11 -4 -11 -10 0 -5 -6 -10 -14 -10 -8 0 -21 -6 -28 -13 -7 -6 -32 -21 -55 -32 -24 -11 -43 -23 -43 -27 0 -5 -4 -8 -10 -8 -5 0 -34 -16 -64 -35 -30 -19 -58 -35 -61 -35 -3 0 -33 -18 -65 -40 -32 -22 -61 -40 -65 -40 -6 0 -87 -52 -95 -61 -3 -3 -12 -8 -20 -11 -8 -4 -56 -35 -107 -70 -200 -138 -341 -275 -377 -367 -17 -43 -19 -118 -4 -127 4 -3 8 -12 8 -20 0 -14 73 -92 116 -124 62 -46 224 -126 324 -160 36 -12 72 -25 80 -28 8 -3 18 -6 23 -7 4 -2 8 -3 10 -5 1 -1 10 -3 20 -5 19 -4 122 -33 147 -43 8 -3 24 -7 35 -9 11 -2 31 -8 45 -13 14 -6 34 -12 45 -14 11 -2 70 -18 130 -36 61 -17 115 -33 120 -34 6 -1 30 -8 55 -15 25 -7 52 -15 60 -17 8 -2 47 -13 85 -24 39 -12 95 -28 125 -36 30 -8 71 -21 91 -29 20 -8 39 -11 43 -8 3 4 6 1 6 -5 0 -6 9 -13 20 -17 12 -4 22 -19 26 -41 5 -28 2 -40 -16 -59 -13 -13 -25 -24 -29 -23 -3 0 -8 -1 -11 -2 -50 -19 -307 -27 -480 -15 -47 4 -116 7 -155 9 -38 1 -76 5 -83 9 -6 5 -12 4 -12 -1 0 -6 -14 -7 -34 -2 -48 11 -368 7 -386 -5 -8 -5 -21 -10 -28 -11 -8 -2 -21 -6 -30 -10 -9 -4 -19 -8 -22 -8 -22 -5 -90 -53 -100 -70 -23 -45 -19 -75 15 -111 33 -34 179 -135 195 -135 5 0 10 -3 12 -8 1 -4 73 -52 158 -106 85 -54 179 -114 207 -132 29 -19 55 -34 57 -34 3 0 34 -18 68 -40 35 -22 69 -40 76 -40 6 0 12 -4 12 -9 0 -5 8 -11 18 -15 9 -3 58 -28 107 -56 75 -42 349 -179 420 -210 52 -23 222 -92 235 -96 8 -2 53 -17 100 -34 47 -17 92 -33 100 -34 8 -2 41 -12 74 -21 32 -9 66 -19 75 -20 9 -2 16 -4 16 -6 0 -1 9 -3 20 -4 11 -1 40 -8 65 -15 25 -7 56 -14 70 -16 36 -6 131 -25 160 -31 29 -7 37 -8 150 -19 205 -19 415 3 546 57 16 7 31 13 34 13 17 4 106 51 112 60 4 6 8 8 8 4 0 -4 49 22 109 57 60 36 114 65 120 65 5 0 11 4 13 8 2 5 28 23 58 40 71 42 78 47 180 113 47 31 89 57 94 57 5 0 12 4 15 10 3 5 29 25 57 44 49 33 235 171 261 193 37 31 43 35 48 35 3 0 13 8 23 18 10 9 40 35 68 57 27 22 67 56 89 76 22 20 51 44 64 55 43 34 325 318 371 373 25 29 50 59 55 65 6 6 26 31 45 56 19 25 37 47 40 50 17 16 95 140 138 220 19 34 41 76 50 94 10 17 28 58 41 91 12 33 27 69 31 80 10 21 30 97 36 130 2 11 7 38 11 60 9 50 9 236 0 290 -17 102 -94 318 -131 365 -6 8 -20 32 -30 52 -10 20 -27 46 -37 57 -11 11 -19 23 -19 27 0 4 -11 21 -24 38 -40 53 -78 148 -80 201 -3 52 11 115 26 115 4 0 8 5 8 10 0 27 113 97 185 116 159 40 282 45 545 19 30 -3 84 -7 120 -10 81 -7 134 -13 185 -20 22 -2 69 -8 105 -11 36 -3 67 -7 71 -9 3 -2 37 -7 75 -11 38 -3 78 -8 89 -10 11 -2 45 -6 75 -9 30 -4 62 -8 70 -10 8 -2 35 -7 60 -10 25 -3 70 -10 100 -15 30 -5 71 -12 90 -14 19 -3 49 -7 65 -10 17 -2 64 -10 105 -17 41 -6 84 -13 95 -14 11 -1 20 -3 20 -4 0 -1 14 -4 30 -6 35 -5 161 -25 190 -32 11 -2 33 -6 48 -8 16 -2 40 -6 55 -9 15 -3 43 -8 62 -10 19 -3 46 -8 60 -11 14 -3 42 -7 62 -10 20 -3 56 -9 80 -14 24 -5 59 -12 78 -15 67 -10 113 -18 134 -22 46 -9 82 -16 101 -19 17 -2 78 -13 165 -30 14 -3 36 -7 50 -10 36 -8 63 -13 104 -19 19 -3 55 -10 78 -15 46 -10 100 -21 133 -26 11 -2 45 -9 75 -15 75 -17 128 -27 170 -35 61 -11 74 -13 130 -25 30 -6 71 -13 90 -16 19 -3 39 -8 43 -11 4 -2 20 -6 35 -8 23 -3 124 -21 222 -39 14 -3 52 -9 85 -15 98 -17 109 -19 135 -25 22 -5 44 -8 130 -21 14 -2 68 -11 120 -19 52 -9 118 -18 145 -21 28 -3 61 -8 75 -10 59 -11 128 -19 167 -19 24 -1 43 -3 43 -6 0 -3 24 -7 53 -9 52 -3 102 -8 102 -11 0 -1 27 -3 60 -5 33 -2 83 -6 110 -9 63 -8 203 -19 395 -31 52 -3 124 -8 160 -10 109 -8 422 -21 725 -31 181 -6 3814 -6 4335 0 119 1 221 5 227 9 5 3 13 4 17 0 3 -3 41 -6 84 -5 42 1 163 3 269 3 253 2 295 17 290 98 -1 20 -12 54 -25 74 -12 21 -22 41 -22 44 0 24 -163 193 -187 193 -6 0 -13 4 -15 8 -5 13 -93 51 -156 68 -81 22 -111 24 -467 29 -176 3 -376 7 -445 10 -69 3 -164 7 -211 8 -47 2 -91 7 -97 11 -7 4 -12 2 -12 -4 0 -6 -4 -9 -8 -6 -8 5 -64 9 -267 21 -61 3 -196 13 -271 20 -23 2 -81 7 -130 11 -49 3 -105 8 -124 10 -19 2 -64 6 -100 9 -36 3 -78 7 -95 9 -16 3 -66 8 -110 12 -98 8 -118 10 -175 18 -25 4 -63 8 -85 10 -42 4 -129 14 -180 21 -16 2 -57 7 -90 10 -33 3 -71 8 -85 11 -14 3 -41 7 -60 9 -50 6 -106 13 -150 20 -20 3 -55 8 -76 10 -21 2 -56 7 -76 10 -103 14 -172 24 -210 31 -16 2 -40 6 -55 8 -16 3 -44 7 -63 10 -30 4 -117 17 -260 40 -19 3 -46 8 -60 10 -14 3 -41 7 -60 10 -19 3 -62 11 -95 16 -64 12 -98 18 -142 24 -16 2 -57 9 -93 16 -36 7 -78 14 -95 16 -16 3 -50 9 -75 14 -25 5 -58 12 -75 14 -16 3 -43 8 -60 11 -16 3 -52 10 -80 15 -27 5 -63 12 -80 15 -28 6 -47 9 -100 18 -11 2 -31 7 -45 10 -14 4 -40 9 -57 12 -18 3 -48 7 -65 10 -18 3 -44 8 -58 12 -41 10 -43 11 -90 18 -24 4 -47 8 -50 10 -3 2 -22 6 -42 9 -20 3 -77 14 -125 25 -48 11 -108 23 -133 26 -24 4 -48 9 -52 12 -5 2 -21 6 -36 9 -15 3 -61 12 -102 20 -41 9 -86 18 -100 20 -14 2 -45 9 -70 14 -57 13 -89 20 -120 26 -14 2 -45 9 -70 14 -25 6 -54 12 -65 14 -11 1 -27 5 -35 8 -8 3 -44 11 -80 17 -36 7 -69 13 -75 15 -19 5 -90 19 -110 22 -11 1 -20 3 -20 4 0 1 -7 3 -15 5 -8 1 -51 10 -95 20 -44 9 -96 19 -115 22 -19 3 -40 9 -46 14 -6 5 -13 7 -16 4 -3 -3 -29 0 -57 6 -29 6 -60 12 -69 14 -9 2 -17 4 -17 5 0 1 -13 3 -30 5 -16 1 -30 3 -30 4 0 2 -11 5 -25 7 -93 17 -289 54 -310 59 -14 3 -34 7 -45 9 -36 6 -120 20 -125 21 -3 1 -27 5 -55 10 -27 4 -59 9 -70 11 -27 6 -265 45 -290 49 -11 1 -56 8 -100 15 -140 22 -203 30 -330 46 -27 3 -61 8 -75 10 -72 9 -120 15 -156 18 -21 2 -39 5 -39 5 0 1 -20 4 -45 6 -25 2 -67 6 -95 9 -455 43 -726 57 -1208 60 -186 1 -339 1 -340 0z m-3907 -1228 c124 -27 195 -64 275 -142 36 -35 65 -70 65 -79 0 -8 3 -15 8 -15 4 0 18 -28 31 -62 19 -48 25 -85 27 -151 2 -89 -6 -125 -48 -216 -40 -88 -195 -215 -291 -238 -104 -24 -204 -28 -297 -10 -126 23 -270 129 -322 237 -7 14 -15 27 -18 30 -8 7 -30 83 -36 123 -10 71 -6 116 19 212 26 95 121 204 226 257 35 18 70 33 77 35 28 6 49 12 49 13 0 1 20 4 44 6 25 3 46 6 47 7 4 4 119 -1 144 -7z" />
      <path d="M2265 10143 c-112 -24 -176 -105 -176 -222 -1 -81 28 -142 84 -179 51 -33 57 -35 132 -35 139 -1 216 68 221 199 3 77 -11 126 -49 165 -49 52 -150 86 -212 72z" />
      <path d="M5490 10379 c-90 -6 -123 -18 -140 -49 -14 -27 3 -65 79 -177 33 -49 61 -94 61 -100 0 -6 3 -13 8 -15 22 -10 124 -264 135 -338 2 -14 7 -32 10 -40 9 -20 17 -110 18 -186 0 -70 -10 -214 -16 -224 -2 -4 -7 -22 -10 -41 -3 -19 -13 -59 -22 -89 -9 -30 -17 -59 -19 -65 -6 -30 -59 -151 -68 -157 -6 -4 -8 -8 -4 -8 21 0 -213 -385 -262 -430 -3 -3 -18 -23 -35 -45 -29 -39 -71 -89 -107 -127 -10 -10 -18 -21 -18 -24 0 -8 -277 -282 -350 -346 -66 -57 -137 -117 -155 -131 -5 -4 -21 -17 -35 -28 -147 -124 -661 -481 -805 -558 -62 -33 -94 -61 -114 -98 -17 -32 -14 -42 17 -49 15 -4 43 -14 62 -22 19 -9 40 -16 45 -18 6 -1 72 -22 147 -48 76 -25 146 -48 155 -50 10 -1 25 -6 33 -9 8 -4 47 -15 85 -26 39 -10 82 -24 96 -29 15 -6 30 -8 33 -5 3 3 12 1 19 -5 7 -7 31 -14 53 -18 21 -3 42 -8 46 -11 5 -2 16 -6 25 -8 10 -2 68 -15 128 -30 61 -14 121 -28 135 -30 14 -2 48 -9 75 -15 82 -19 83 -19 205 -40 77 -13 141 -22 165 -24 26 -1 23 16 -21 149 -38 116 -41 152 -18 197 37 71 113 111 209 111 75 0 93 -3 200 -35 38 -11 80 -22 94 -25 13 -2 29 -7 35 -11 6 -3 19 -8 29 -9 26 -4 202 -71 267 -101 88 -42 169 -90 265 -161 50 -36 102 -72 115 -80 76 -44 139 -73 217 -100 126 -43 160 -51 318 -71 67 -8 448 -6 462 3 5 3 59 9 119 13 186 11 305 21 444 38 25 3 63 8 86 10 22 3 56 7 75 10 51 8 110 17 144 22 17 2 39 5 50 7 11 3 40 8 65 12 25 4 54 9 65 11 11 3 36 7 55 10 19 3 51 9 70 14 37 10 73 17 130 26 27 4 197 44 380 90 216 53 722 215 950 304 58 23 110 42 115 44 6 1 27 10 49 19 21 9 44 17 51 17 6 0 15 3 19 8 4 4 11 7 14 7 4 0 33 13 66 28 32 15 62 27 66 27 7 0 76 29 160 68 19 9 38 15 43 14 4 -1 7 3 7 8 0 5 3 9 8 8 9 -2 36 10 148 62 49 23 107 49 129 57 22 9 47 22 56 30 8 7 20 13 24 13 15 0 480 232 483 241 2 5 8 9 14 9 10 0 135 59 321 151 43 22 84 39 92 39 7 0 15 3 17 8 2 4 19 14 38 24 51 24 144 64 153 66 4 1 28 13 55 26 26 13 92 43 147 66 55 23 118 50 140 59 22 10 60 26 85 36 25 10 59 23 75 30 17 7 62 25 100 40 39 15 79 31 90 36 11 5 65 25 120 44 55 20 109 41 120 46 11 5 49 18 85 29 36 12 74 25 85 30 25 11 268 91 287 94 7 1 18 4 23 8 10 6 200 64 239 73 10 2 42 11 70 19 28 8 54 16 58 16 4 1 22 6 40 11 18 6 40 12 48 14 8 1 35 9 60 16 60 17 62 17 85 22 11 3 38 10 60 16 22 6 51 12 65 15 14 2 25 5 25 6 0 2 11 4 55 13 14 3 66 14 115 26 50 11 101 22 115 25 14 2 48 9 75 15 67 14 104 21 140 27 53 8 78 12 167 28 47 9 103 18 125 20 21 3 38 5 38 6 0 1 11 3 25 5 46 6 115 15 150 20 61 9 114 16 160 20 25 3 68 7 95 10 48 5 102 10 210 19 252 21 358 25 710 30 217 3 254 6 335 31 3 1 18 7 33 13 16 7 30 12 32 12 3 0 28 15 57 34 68 43 178 152 178 175 0 5 4 11 9 13 4 2 22 29 40 61 50 91 43 138 -22 153 -47 11 -270 12 -284 1 -7 -5 -13 -6 -13 -1 0 10 -171 10 -196 0 -10 -4 -13 -2 -8 6 4 7 3 8 -4 4 -17 -10 -82 -14 -88 -4 -3 5 -10 5 -16 2 -6 -4 -169 -8 -362 -10 -193 -1 -742 -5 -1221 -9 -1787 -14 -3425 -4 -3466 20 -5 4 -9 1 -9 -5 0 -6 -5 -8 -10 -5 -6 4 -43 8 -83 10 -167 9 -357 22 -457 30 -25 2 -74 6 -110 9 -36 3 -90 8 -120 12 -30 3 -75 8 -100 10 -25 2 -58 6 -75 8 -16 3 -57 8 -90 12 -33 3 -67 8 -75 9 -9 2 -43 6 -75 10 -33 4 -69 9 -80 11 -11 3 -36 7 -55 10 -19 3 -60 9 -90 14 -71 12 -128 20 -163 25 -93 13 -114 16 -127 20 -8 2 -30 7 -47 10 -18 3 -48 8 -65 11 -18 3 -42 7 -53 9 -11 1 -36 5 -55 9 -54 9 -92 16 -130 22 -19 2 -57 9 -85 14 -27 5 -63 12 -80 15 -16 3 -43 8 -60 11 -16 3 -39 7 -50 9 -11 1 -36 5 -55 9 -19 3 -47 8 -62 10 -15 3 -63 11 -105 20 -74 14 -100 19 -175 31 -18 3 -64 12 -103 20 -79 15 -143 27 -165 30 -8 1 -29 5 -47 9 -17 4 -47 10 -65 12 -42 7 -86 15 -213 39 -16 3 -43 8 -59 10 -15 2 -35 6 -45 9 -9 3 -34 8 -56 11 -23 3 -52 8 -65 11 -35 7 -61 12 -130 24 -33 6 -71 13 -85 16 -14 2 -36 6 -50 8 -14 3 -51 10 -83 15 -31 6 -70 13 -87 16 -16 2 -41 7 -55 10 -14 3 -38 7 -55 9 -16 3 -68 12 -115 21 -119 22 -119 22 -180 30 -30 4 -58 9 -63 12 -4 2 -17 6 -30 8 -75 11 -125 19 -142 20 -11 2 -33 5 -50 9 -31 6 -203 33 -265 42 -19 2 -48 6 -65 9 -69 10 -103 14 -160 20 -33 3 -76 8 -95 11 -143 20 -493 33 -630 23z m2100 -733 c63 -3 126 -8 140 -11 14 -2 57 -7 95 -10 124 -11 140 -13 210 -28 11 -3 41 -8 67 -11 26 -4 69 -11 95 -16 26 -6 62 -13 78 -16 147 -27 415 -103 486 -138 63 -31 141 -90 132 -100 -3 -3 -1 -6 5 -6 6 0 26 -30 44 -67 30 -62 33 -75 32 -158 0 -100 -22 -180 -79 -295 -56 -111 -160 -258 -242 -338 -18 -18 -33 -37 -33 -42 0 -6 -4 -10 -9 -10 -5 0 -29 -20 -53 -43 -78 -79 -318 -257 -346 -257 -6 0 -12 -4 -14 -8 -3 -10 -27 -23 -148 -83 -74 -36 -205 -94 -220 -97 -6 -1 -40 -12 -60 -19 -8 -4 -19 -7 -25 -9 -5 -1 -44 -11 -85 -23 -41 -11 -88 -23 -104 -25 -16 -3 -52 -10 -80 -15 -145 -29 -362 -27 -516 4 -14 3 -38 8 -55 11 -16 3 -48 9 -70 15 -22 5 -48 12 -59 14 -39 9 -128 36 -154 47 -15 6 -29 12 -32 13 -65 16 -220 86 -350 156 -61 33 -180 113 -180 121 0 4 -5 8 -12 8 -18 0 -106 96 -122 133 -7 19 -12 49 -10 68 3 19 5 39 6 46 3 24 86 120 155 178 90 76 128 133 129 194 2 62 -22 99 -137 219 -156 162 -188 267 -105 355 46 50 167 106 261 122 11 2 29 6 40 9 95 24 347 69 460 82 28 3 66 7 85 10 59 7 130 13 245 20 61 4 111 7 112 8 4 4 320 -2 423 -8z" />
      <path d="M6889 9446 c-2 -2 -44 -7 -94 -11 -83 -6 -117 -9 -185 -20 -14 -3 -42 -7 -64 -10 -76 -13 -228 -49 -284 -69 -23 -8 -43 -16 -45 -16 -1 0 -12 -3 -25 -7 -13 -3 -22 -9 -20 -13 2 -4 32 -40 68 -80 85 -95 145 -174 172 -230 25 -52 32 -143 15 -192 -15 -43 -100 -172 -143 -217 -19 -20 -37 -44 -40 -53 -3 -10 -9 -18 -14 -18 -11 0 -50 -63 -50 -82 0 -30 38 -56 185 -129 83 -41 152 -74 155 -75 7 -1 59 -23 95 -39 94 -44 365 -118 438 -119 15 -1 27 -3 27 -6 0 -14 308 -19 400 -7 83 11 127 20 190 38 25 7 47 13 50 13 3 1 11 5 18 9 6 5 12 6 12 3 0 -3 21 4 48 15 68 30 86 37 93 35 4 0 15 6 25 15 11 9 30 20 43 24 14 4 29 11 35 16 26 22 148 99 156 99 5 0 15 8 22 18 7 9 31 30 53 47 109 80 336 332 444 493 93 139 112 231 61 304 -21 31 -88 83 -108 83 -4 0 -13 4 -19 8 -20 13 -123 46 -123 40 0 -3 -6 -1 -12 5 -12 9 -132 40 -183 47 -11 2 -20 4 -20 5 0 1 -9 3 -20 4 -11 2 -33 6 -50 9 -16 4 -48 9 -70 12 -22 3 -51 7 -65 9 -37 6 -125 15 -212 22 -42 3 -107 7 -145 10 -86 7 -808 15 -814 10z" />
      <path d="M15557 8904 c-2 -2 -134 -16 -187 -20 -19 -1 -35 -3 -35 -4 0 -1 -24 -4 -125 -14 -25 -3 -45 -5 -45 -7 0 -1 -18 -3 -40 -4 -22 -2 -40 -4 -40 -5 0 -1 -11 -3 -25 -4 -24 -3 -145 -22 -205 -33 -16 -3 -40 -6 -52 -6 -13 -1 -23 -5 -23 -10 0 -4 -4 -6 -9 -2 -6 3 -41 -1 -78 -9 -37 -9 -81 -17 -98 -20 -16 -2 -52 -9 -80 -16 -27 -6 -61 -14 -75 -16 -14 -3 -33 -7 -42 -10 -10 -3 -28 -7 -40 -10 -46 -8 -65 -13 -148 -34 -47 -12 -92 -24 -100 -26 -8 -2 -42 -10 -75 -19 -33 -9 -76 -20 -95 -25 -19 -4 -64 -18 -100 -29 -36 -11 -65 -20 -65 -19 0 1 -73 -21 -95 -29 -8 -3 -20 -7 -25 -8 -37 -8 -125 -40 -125 -44 1 -3 37 -28 80 -56 44 -27 80 -54 80 -58 0 -5 5 -5 10 -2 6 3 10 2 10 -4 0 -5 8 -12 19 -16 10 -3 28 -13 39 -23 45 -38 181 -124 272 -171 74 -39 210 -94 210 -86 0 3 11 0 24 -4 13 -5 52 -12 87 -16 35 -4 67 -9 71 -11 4 -3 8 -2 8 3 0 4 15 8 33 9 66 1 127 9 127 16 0 5 3 7 8 6 6 -1 32 3 102 17 13 2 147 47 165 55 11 5 41 18 67 29 26 12 49 21 51 21 7 0 220 120 235 133 8 6 22 16 32 22 86 50 253 188 382 316 101 101 118 132 104 196 -10 43 -37 55 -118 51 -38 -2 -70 -4 -71 -4z" />
      <path d="M12930 8318 c-19 -5 -49 -16 -67 -24 -17 -7 -36 -14 -42 -14 -6 0 -19 -4 -29 -10 -9 -5 -66 -29 -127 -53 -60 -24 -119 -47 -130 -52 -11 -4 -23 -7 -27 -7 -5 1 -8 -2 -8 -8 0 -6 -3 -9 -7 -8 -5 1 -30 -8 -57 -20 -27 -12 -52 -22 -57 -22 -5 0 -24 -9 -44 -20 -19 -11 -38 -20 -43 -21 -4 0 -40 -16 -79 -34 -40 -19 -83 -37 -95 -41 -13 -4 -25 -10 -28 -15 -3 -5 -15 -10 -25 -12 -11 -2 -40 -14 -65 -27 -25 -13 -49 -25 -55 -26 -8 -2 -127 -57 -355 -167 -25 -12 -47 -22 -50 -22 -3 -1 -59 -27 -125 -59 -66 -32 -158 -76 -205 -98 -47 -21 -92 -43 -100 -49 -8 -5 -22 -12 -30 -15 -24 -10 -126 -58 -240 -112 -58 -27 -125 -59 -150 -70 -25 -11 -85 -39 -135 -63 -49 -23 -92 -43 -95 -44 -27 -6 -80 -31 -80 -37 0 -4 -3 -7 -7 -6 -5 1 -26 -6 -48 -16 -22 -9 -56 -24 -75 -33 -19 -8 -47 -22 -62 -29 -14 -8 -33 -14 -41 -14 -9 0 -23 -7 -32 -16 -15 -15 -9 -21 77 -77 51 -33 95 -64 96 -69 2 -4 7 -8 12 -8 5 0 49 -27 99 -60 50 -33 95 -60 100 -60 5 0 11 -3 13 -8 3 -8 228 -144 271 -163 15 -7 27 -16 27 -21 0 -4 9 -8 19 -8 11 0 22 -4 25 -9 6 -9 143 -78 264 -133 92 -41 231 -95 327 -125 44 -14 87 -28 95 -31 33 -12 48 -13 120 -14 87 0 158 23 235 77 28 20 61 43 75 52 38 26 212 158 237 180 12 11 34 28 49 39 14 10 47 38 71 62 25 23 47 42 50 42 2 0 16 12 32 28 15 15 71 69 123 120 53 51 122 122 154 159 33 37 67 74 77 82 9 9 17 19 17 24 0 4 11 19 24 32 14 14 37 42 53 62 15 21 40 52 55 68 16 17 28 36 28 43 0 6 3 12 8 12 4 0 21 20 37 45 17 24 33 45 38 45 4 0 7 4 7 10 0 5 32 58 71 117 79 119 126 213 135 270 3 21 8 40 10 42 2 2 -1 12 -6 22 -7 12 -7 20 0 24 6 4 8 10 5 15 -2 4 -7 25 -11 46 -3 22 -17 66 -31 99 -13 33 -27 68 -30 78 -3 9 -9 17 -14 17 -5 0 -9 6 -9 14 0 15 -99 120 -117 123 -48 9 -73 10 -103 1z" />
      <path d="M5423 6849 c-25 -9 -39 -29 -26 -38 5 -3 17 -22 27 -41 23 -46 43 -82 56 -100 29 -43 121 -187 127 -200 4 -8 12 -20 17 -26 6 -6 24 -32 40 -57 17 -26 34 -47 38 -47 4 0 8 -6 8 -14 0 -8 3 -16 8 -18 9 -4 72 -85 72 -92 0 -3 11 -18 25 -33 13 -16 41 -48 61 -73 142 -176 475 -526 488 -513 3 4 6 1 6 -5 0 -29 241 -176 303 -186 7 -1 17 -5 23 -8 21 -13 111 -23 214 -23 94 1 134 4 235 22 17 2 39 6 50 8 77 11 116 33 146 82 50 80 20 152 -125 296 -230 229 -467 421 -726 587 -8 5 -31 20 -50 33 -39 25 -93 57 -160 95 -25 14 -58 33 -75 43 -110 63 -364 183 -545 255 -133 54 -197 68 -237 53z" />
   </g>
</svg>